<svg xmlns="http://www.w3.org/2000/svg" version="1.1" xmlns:xlink="http://www.w3.org/1999/xlink" viewBox="0 0 700 700" style="overflow: hidden; display: block;" width="700" height="700"><defs></defs><g id="two-0" transform="matrix(1 0 0 1 0 0)" opacity="1"><path transform="matrix(1 0 0 1 350 350)" id="two-198" d="M 208.15542 86.220798 C 196.784289 112.307346 162.775097 123.778572 148.249062 148.249062 C 127.172967 183.753751 142.750855 241.42059 110.86502 267.651835 C 82.441518 291.034753 36.771022 278.237444 0 279.833751 C -37.868754 281.477714 -83.148774 298.035982 -114.832363 277.229845 C -148.602357 255.053597 -135.654793 192.668975 -166.017959 166.017958 C -200.856353 135.438848 -278.594764 165.363755 -300.159486 124.330129 C -320.149617 86.292653 -270.742323 41.9562 -261.461582 0 C -254.08401 -33.352388 -254.163385 -69.052335 -247.669129 -102.587912 C -240.180801 -141.256755 -248.020423 -192.45872 -218.26435 -218.26435 C -187.570816 -244.882983 -135.645524 -223.213396 -95.852457 -231.408301 C -63.430559 -238.085202 -31.169602 -249.833083 -0.000001 -260.978327 C 43.664647 -276.591396 91.746946 -340.153821 130.099035 -314.086858 C 180.859373 -279.586315 91.59854 -177.444312 128.112405 -128.112406 C 149.801829 -98.808998 215.536753 -128.343053 234.108508 -96.97092 C 250.797888 -68.778569 217.23977 -32.463471 212.827612 -0.000001 C 208.990149 28.235023 219.541509 60.099932 208.15542 86.220798 Z " fill="#212529" stroke="undefined" stroke-width="1" stroke-opacity="1" fill-opacity="1" visibility="visible" stroke-linecap="butt" stroke-linejoin="miter" stroke-miterlimit="4"></path></g></svg>